<?xml version="1.0" encoding="utf-8"?>
<!-- Generator: Adobe Illustrator 16.0.0, SVG Export Plug-In . SVG Version: 6.00 Build 0)  -->
<!DOCTYPE svg PUBLIC "-//W3C//DTD SVG 1.1//EN" "http://www.w3.org/Graphics/SVG/1.1/DTD/svg11.dtd">
<svg version="1.1" id="Layer_1" xmlns="http://www.w3.org/2000/svg" xmlns:xlink="http://www.w3.org/1999/xlink" x="0px" y="0px"
	 width="180px" height="65px" viewBox="-1.354 -2.5 180 65" enable-background="new -1.354 -2.5 180 65" xml:space="preserve">
<g>
	<path fill="none" d="M41.756,20.978c-0.947,0-1.826,0.716-2.057,1.732c-0.046,0.208-0.069,0.417-0.069,0.648v1.664
		c0,0.23,0.023,0.439,0.069,0.624c0.231,0.948,1.04,1.664,2.057,1.664c1.502,0,2.427-1.155,2.427-3.189
		C44.183,22.364,43.397,20.978,41.756,20.978z"/>
	<path fill="none" d="M52.664,26.27c0,0.901,0.6,1.34,1.386,1.34c0.878,0,1.595-0.578,1.826-1.293
		c0.046-0.186,0.069-0.394,0.069-0.601V24.49C54.096,24.467,52.664,24.906,52.664,26.27z"/>
	<path fill="none" d="M28.077,20.769c-1.687,0-2.311,1.733-2.311,3.397c0,1.941,0.809,3.397,2.311,3.397
		c1.364,0,2.242-1.364,2.242-3.397C30.318,22.479,29.671,20.769,28.077,20.769z"/>
	<path fill="none" d="M137.979,26.27c0,0.901,0.601,1.34,1.385,1.34c0.879,0,1.596-0.578,1.826-1.293
		c0.047-0.186,0.069-0.394,0.069-0.601V24.49C139.41,24.467,137.979,24.906,137.979,26.27z"/>
	<path fill="none" d="M162.332,20.608c-1.479,0-2.08,1.34-2.172,2.287h4.158C164.318,22.04,163.95,20.608,162.332,20.608z"/>
	<path fill="#FFFFFF" d="M75.101,25.484c0-0.971-0.739-1.526-2.611-2.196c-1.06-0.369-1.957-0.833-2.661-1.401l1.83,5.211
		c0.319,0.041,0.642,0.073,0.97,0.073C74.246,27.17,75.101,26.5,75.101,25.484z"/>
	<path fill="#FFFFFF" d="M114.893,22.34h-0.045c-0.207,1.411-0.439,2.45-0.74,3.513l-1.133,3.975h-3.304l-3.282-11.3h3.582
		l0.901,4.622c0.229,1.178,0.461,2.427,0.647,3.721h0.045c0.23-1.294,0.556-2.588,0.83-3.698l1.203-4.645h2.772l1.132,4.506
		c0.303,1.271,0.604,2.542,0.833,3.836h0.046c0.162-1.294,0.395-2.565,0.646-3.859l0.971-4.483h3.443l-1.356,4.421l3.864-4.181
		c2.984-3.23,1.902-6.61-2.401-7.509L69.378-0.058c-4.307-0.9-6.638,1.76-5.18,5.911l4.141,11.792
		c0.509-2.126,2.593-3.646,5.768-3.646c1.756,0,3.051,0.37,3.975,0.786l-0.786,2.842c-0.624-0.3-1.733-0.739-3.258-0.739
		s-2.265,0.693-2.265,1.502c0,0.993,0.878,1.432,2.889,2.195c2.75,1.017,4.044,2.45,4.044,4.646c0,2.552-1.928,4.725-6.01,4.819
		l9.144,26.039c1.458,4.151,5.093,4.904,8.079,1.672l26.542-28.723l-0.852-3.184C115.331,24.745,115.123,23.727,114.893,22.34z
		 M91.6,29.828h-3.513v-6.216c0-1.479-0.508-2.496-1.825-2.496c-0.925,0-1.502,0.602-1.757,1.225
		c-0.092,0.231-0.115,0.532-0.115,0.786v6.702h-3.513V13.42h3.513v6.448h0.047c0.369-0.486,0.831-0.856,1.386-1.156
		c0.508-0.277,1.179-0.439,1.825-0.439c2.243,0,3.952,1.548,3.952,4.945V29.828z M99.617,30.082c-3.305,0-5.846-2.172-5.846-5.824
		c0-3.65,2.403-5.985,6.031-5.985c3.465,0,5.777,2.38,5.777,5.777C105.581,28.188,102.646,30.082,99.617,30.082z"/>
	<path fill="#FFFFFF" d="M99.71,20.769c-1.687,0-2.312,1.733-2.312,3.397c0,1.941,0.811,3.397,2.312,3.397
		c1.364,0,2.243-1.364,2.243-3.397C101.953,22.479,101.307,20.769,99.71,20.769z"/>
	<path fill="#FFFFFF" d="M7.927,23.658h2.404v3.259c-0.278,0.138-0.925,0.23-1.734,0.23c-2.888,0-4.898-1.895-4.898-5.107
		c0-3.374,2.218-5.037,5.153-5.037c1.709,0,2.772,0.3,3.627,0.67l0.739-2.819c-0.763-0.37-2.311-0.763-4.321-0.763
		c-5.107,0-8.874,2.958-8.896,8.134c-0.023,2.288,0.763,4.321,2.195,5.661c1.433,1.387,3.489,2.104,6.332,2.104
		c2.056,0,4.113-0.508,5.199-0.877v-8.204h-5.8V23.658z"/>
	<rect x="16.43" y="13.42" fill="#FFFFFF" width="3.512" height="16.408"/>
	<path fill="#FFFFFF" d="M28.169,18.273c-3.628,0-6.031,2.335-6.031,5.985c0,3.652,2.542,5.824,5.847,5.824
		c3.027,0,5.962-1.895,5.962-6.031C33.946,20.654,31.636,18.273,28.169,18.273z M28.077,27.564c-1.502,0-2.311-1.457-2.311-3.397
		c0-1.664,0.624-3.397,2.311-3.397c1.595,0,2.242,1.71,2.242,3.397C30.318,26.2,29.44,27.564,28.077,27.564z"/>
	<path fill="#FFFFFF" d="M43.097,18.273c-1.572,0-2.75,0.624-3.42,1.595h-0.046V13.42h-3.513v13.034
		c0,1.271-0.045,2.634-0.092,3.374h2.981l0.139-1.572h0.046c0.809,1.341,2.08,1.826,3.397,1.826c2.588,0,5.176-2.033,5.176-6.101
		C47.789,20.515,45.8,18.273,43.097,18.273z M41.756,27.31c-1.017,0-1.826-0.716-2.057-1.664c-0.046-0.185-0.069-0.394-0.069-0.624
		v-1.664c0-0.231,0.023-0.439,0.069-0.648c0.231-1.016,1.109-1.732,2.057-1.732c1.641,0,2.427,1.387,2.427,3.143
		C44.183,26.154,43.258,27.31,41.756,27.31z"/>
	<path fill="#FFFFFF" d="M59.365,23.149c0-2.658-1.202-4.876-4.968-4.876c-2.057,0-3.605,0.555-4.391,0.994l0.647,2.265
		c0.739-0.462,1.964-0.854,3.12-0.854c1.733,0,2.057,0.854,2.057,1.455v0.162c-3.998-0.022-6.632,1.387-6.632,4.321
		c0,1.803,1.363,3.466,3.651,3.466c1.34,0,2.496-0.485,3.235-1.387h0.069l0.208,1.133h3.166c-0.116-0.625-0.162-1.664-0.162-2.75
		V23.149z M55.944,25.715c0,0.208-0.023,0.416-0.069,0.601c-0.231,0.716-0.948,1.293-1.826,1.293c-0.786,0-1.386-0.439-1.386-1.34
		c0-1.363,1.433-1.803,3.281-1.779V25.715z"/>
	<rect x="62.137" y="13.42" fill="#FFFFFF" width="3.513" height="16.408"/>
	<path fill="none" d="M78.706,25.23c0-2.196-1.294-3.629-4.044-4.646c-2.011-0.763-2.889-1.202-2.889-2.195
		c0-0.809,0.74-1.502,2.265-1.502s2.635,0.439,3.258,0.739l0.786-2.842c-0.924-0.416-2.219-0.786-3.975-0.786
		c-3.175,0-5.259,1.52-5.768,3.646l1.489,4.242c0.704,0.568,1.601,1.033,2.661,1.401c1.872,0.67,2.611,1.225,2.611,2.196
		c0,1.016-0.855,1.686-2.473,1.686c-0.328,0-0.651-0.032-0.97-0.073l1.037,2.951C76.777,29.955,78.706,27.782,78.706,25.23z"/>
	<path fill="none" d="M87.648,18.273c-0.646,0-1.317,0.162-1.825,0.439c-0.555,0.3-1.017,0.67-1.386,1.156H84.39V13.42h-3.513
		v16.408h3.513v-6.702c0-0.254,0.023-0.555,0.115-0.786c0.254-0.623,0.832-1.225,1.757-1.225c1.316,0,1.825,1.017,1.825,2.496v6.216
		H91.6v-6.609C91.6,19.822,89.891,18.273,87.648,18.273z"/>
	<path fill="none" d="M99.805,18.273c-3.629,0-6.033,2.335-6.033,5.985c0,3.652,2.541,5.824,5.847,5.824
		c3.028,0,5.964-1.895,5.964-6.031C105.581,20.654,103.27,18.273,99.805,18.273z M99.71,27.564c-1.501,0-2.312-1.457-2.312-3.397
		c0-1.664,0.625-3.397,2.312-3.397c1.597,0,2.243,1.71,2.243,3.397C101.953,26.2,101.074,27.564,99.71,27.564z"/>
	<path fill="none" d="M123.443,18.528h-3.444l-0.97,4.483c-0.254,1.294-0.485,2.565-0.647,3.859h-0.046
		c-0.23-1.294-0.531-2.565-0.833-3.836l-1.132-4.506H113.6l-1.203,4.645c-0.275,1.11-0.601,2.404-0.832,3.698h-0.045
		c-0.187-1.294-0.416-2.542-0.646-3.721l-0.9-4.622h-3.584l3.283,11.3h3.303l1.135-3.975c0.3-1.063,0.531-2.103,0.738-3.513h0.047
		c0.229,1.387,0.438,2.404,0.715,3.513l0.853,3.184l5.626-6.088L123.443,18.528z"/>
	<path fill="#FFFFFF" d="M130.723,20.978c0.924,0,1.547,0.162,1.963,0.347l0.556-2.612c-0.739-0.277-1.757-0.439-2.681-0.439
		c-4.207,0-6.472,2.704-6.472,6.009c0,3.559,2.335,5.777,5.983,5.777c1.342,0,2.521-0.231,3.144-0.508l-0.415-2.588
		c-0.531,0.207-1.178,0.346-2.01,0.346c-1.71,0-3.098-1.086-3.098-3.167C127.669,22.294,128.872,20.978,130.723,20.978z"/>
	<path fill="#FFFFFF" d="M144.678,23.149c0-2.658-1.201-4.876-4.968-4.876c-2.058,0-3.604,0.555-4.392,0.994l0.646,2.265
		c0.739-0.462,1.965-0.854,3.121-0.854c1.732,0,2.055,0.854,2.055,1.455v0.162c-3.996-0.022-6.631,1.387-6.631,4.321
		c0,1.803,1.362,3.466,3.65,3.466c1.341,0,2.496-0.485,3.236-1.387h0.067l0.209,1.133h3.164c-0.114-0.625-0.161-1.664-0.161-2.75
		v-3.929H144.678z M141.259,25.715c0,0.208-0.022,0.416-0.069,0.601c-0.23,0.716-0.947,1.293-1.826,1.293
		c-0.784,0-1.385-0.439-1.385-1.34c0-1.363,1.433-1.803,3.28-1.779V25.715z"/>
	<path fill="#FFFFFF" d="M152.281,22.918c-1.387-0.485-1.827-0.762-1.827-1.294c0-0.577,0.485-0.925,1.341-0.925
		c0.971,0,1.939,0.37,2.449,0.648l0.625-2.427c-0.694-0.347-1.873-0.647-3.189-0.647c-2.796,0-4.599,1.595-4.599,3.697
		c-0.022,1.341,0.878,2.611,3.213,3.397c1.317,0.439,1.662,0.717,1.662,1.294c0,0.579-0.438,0.948-1.502,0.948
		c-1.039,0-2.379-0.462-3.026-0.854l-0.623,2.519c0.854,0.462,2.172,0.786,3.649,0.786c3.235,0,4.899-1.549,4.899-3.652
		C155.331,24.745,154.432,23.658,152.281,22.918z"/>
	<path fill="#FFFFFF" d="M162.54,18.273c-3.929,0-5.707,3.166-5.707,6.032c0,3.536,2.194,5.754,6.032,5.754
		c1.523,0,2.934-0.231,4.089-0.694l-0.461-2.379c-0.948,0.3-1.919,0.462-3.122,0.462c-1.641,0-3.072-0.693-3.188-2.15h7.279
		c0.045-0.253,0.115-0.785,0.115-1.386C167.578,21.116,166.191,18.273,162.54,18.273z M160.16,22.896
		c0.092-0.947,0.691-2.287,2.172-2.287c1.618,0,1.986,1.432,1.986,2.287H160.16z"/>
	<path fill="#FFFFFF" d="M174.512,22.918c-1.389-0.485-1.826-0.762-1.826-1.294c0-0.577,0.483-0.925,1.34-0.925
		c0.971,0,1.939,0.37,2.449,0.648l0.625-2.427c-0.695-0.347-1.873-0.647-3.189-0.647c-2.797,0-4.6,1.595-4.6,3.697
		c-0.022,1.341,0.879,2.611,3.213,3.397c1.317,0.439,1.662,0.717,1.662,1.294c0,0.579-0.438,0.948-1.5,0.948
		c-1.041,0-2.381-0.462-3.027-0.854l-0.623,2.519c0.854,0.462,2.172,0.786,3.65,0.786c3.234,0,4.897-1.549,4.897-3.652
		C177.561,24.745,176.66,23.658,174.512,22.918z"/>
</g>
</svg>
